<?xml version="1.0" standalone="no"?>
<!DOCTYPE svg PUBLIC "-//W3C//DTD SVG 20010904//EN"
 "http://www.w3.org/TR/2001/REC-SVG-20010904/DTD/svg10.dtd">
<svg version="1.0" xmlns="http://www.w3.org/2000/svg"
 width="700.000000pt" height="700.000000pt" viewBox="0 0 700.000000 700.000000"
 preserveAspectRatio="xMidYMid meet">
<metadata>
Created by potrace 1.14, written by Peter Selinger 2001-2017
</metadata>
<g transform="translate(0.000000,700.000000) scale(0.100000,-0.100000)"
fill="#000000" stroke="none">
<path d="M2604 6988 c-11 -14 -152 -146 -445 -419 -154 -144 -171 -159 -176
-159 -6 0 -344 -75 -428 -95 -150 -36 -343 -78 -372 -83 -18 -2 -36 -9 -41
-16 -5 -6 -26 -60 -47 -121 -20 -60 -82 -237 -136 -391 -55 -155 -99 -287 -99
-293 0 -13 -17 -30 -89 -91 -30 -25 -59 -49 -65 -55 -14 -12 -132 -113 -165
-140 -13 -11 -29 -25 -35 -30 -6 -6 -40 -35 -76 -65 -36 -30 -67 -57 -70 -60
-3 -3 -36 -32 -75 -65 -116 -98 -107 -75 -85 -217 11 -67 22 -145 26 -173 3
-27 8 -59 10 -70 2 -11 6 -45 9 -75 4 -30 8 -62 10 -70 2 -8 7 -35 10 -60 4
-25 15 -101 25 -170 l19 -125 -105 -265 c-58 -146 -112 -278 -119 -295 -52
-118 -85 -215 -85 -248 0 -34 15 -60 117 -200 64 -89 129 -180 145 -202 15
-22 75 -105 133 -185 63 -87 105 -155 106 -170 0 -14 2 -32 3 -40 2 -8 6 -51
10 -95 4 -44 8 -96 11 -115 2 -19 6 -64 9 -100 3 -36 8 -83 11 -105 2 -22 7
-65 9 -95 12 -118 17 -176 21 -205 2 -16 4 -44 4 -60 1 -30 9 -34 399 -229
l397 -199 80 -124 c44 -68 109 -167 144 -221 35 -53 104 -160 153 -237 50 -77
92 -142 94 -144 2 -2 18 -4 36 -4 31 0 597 12 773 17 74 2 84 0 135 -29 30
-18 78 -45 105 -60 332 -184 572 -319 582 -327 9 -7 55 13 160 72 148 83 187
104 318 175 39 21 72 42 73 47 2 4 8 8 13 8 5 0 58 27 117 61 l107 60 235 -5
c129 -4 326 -9 436 -11 l202 -5 198 305 c110 167 217 334 239 369 l40 64 395
199 c313 157 394 202 395 218 7 99 17 203 20 215 2 8 7 51 10 95 3 44 8 94 10
110 5 38 12 110 30 313 11 124 14 130 109 261 50 69 125 173 166 231 41 58 78
110 83 115 4 6 44 60 87 121 l80 111 -126 314 c-69 173 -132 328 -139 344 -7
17 -25 60 -40 96 l-26 66 16 114 c8 63 17 125 20 139 2 14 9 61 15 106 6 44
12 89 14 100 2 11 7 47 11 79 4 33 9 67 10 75 15 87 23 144 30 215 l5 50 -52
43 c-55 44 -92 75 -143 120 -17 15 -73 63 -125 107 -52 44 -97 82 -100 85 -3
3 -58 50 -124 105 -133 111 -121 92 -208 340 -33 94 -75 215 -94 270 -20 55
-51 147 -71 205 -20 58 -42 110 -50 116 -7 6 -32 15 -55 18 -23 4 -87 18 -142
31 -56 13 -112 26 -126 29 -14 2 -54 11 -90 20 -36 8 -76 17 -90 20 -150 28
-347 80 -367 96 -13 10 -82 73 -151 138 -70 66 -155 145 -188 176 -34 31 -106
99 -160 151 -97 92 -100 94 -147 95 -30 0 -154 -29 -325 -76 -326 -90 -448
-122 -482 -130 -14 -3 -89 12 -175 36 -82 23 -166 45 -185 50 -19 4 -78 20
-130 35 -239 68 -279 78 -335 82 -41 2 -63 0 -71 -9z m1637 -1043 c35 -33 122
-114 193 -180 70 -66 135 -123 144 -126 10 -3 47 -12 84 -19 61 -11 72 -10
130 9 118 39 204 50 368 46 121 -2 171 -8 228 -24 212 -62 329 -179 382 -384
21 -84 20 -172 -5 -432 -4 -38 -8 -76 -10 -85 -2 -8 -6 -42 -10 -76 l-6 -61
75 -64 c42 -35 76 -68 76 -74 0 -5 -5 -39 -11 -75 -6 -36 -12 -83 -14 -105 -3
-22 -7 -51 -10 -65 -3 -14 -7 -41 -9 -60 -7 -52 -18 -133 -21 -150 -1 -8 -6
-40 -10 -70 -4 -30 -9 -64 -11 -75 -2 -11 50 -155 117 -321 l121 -300 -186
-258 c-102 -142 -186 -266 -187 -275 0 -9 -2 -25 -4 -36 -1 -11 -6 -54 -10
-95 -3 -41 -8 -88 -10 -105 -1 -16 -6 -66 -10 -110 -4 -44 -9 -93 -11 -110 -2
-16 -6 -59 -10 -95 -7 -77 -8 -78 -144 -145 l-96 -47 -18 -66 c-64 -239 -219
-419 -437 -505 -35 -14 -80 -29 -99 -33 -19 -4 -38 -9 -42 -10 -5 -1 -14 -2
-20 -3 -7 0 -26 -21 -41 -45 l-28 -44 -172 4 c-95 2 -237 6 -317 8 l-145 3
-75 -42 c-41 -23 -100 -56 -130 -72 -64 -36 -188 -105 -278 -157 -35 -20 -69
-36 -76 -36 -7 0 -134 68 -282 151 l-269 151 -115 -2 c-63 -1 -209 -3 -325 -3
l-209 -2 -151 231 c-82 127 -151 231 -152 230 -2 -2 -26 -166 -38 -261 -3 -22
-7 -49 -10 -60 -2 -11 -4 -23 -4 -26 -1 -4 -174 -7 -386 -7 l-385 1 4 31 c10
62 75 520 82 576 5 44 16 125 19 140 4 21 13 86 21 140 11 78 13 93 21 155 8
59 9 241 1 280 -2 11 -37 66 -78 123 -41 57 -82 113 -90 125 -8 12 -56 78
-105 147 -50 69 -94 130 -98 136 -3 6 47 145 112 308 l119 297 -10 67 c-5 37
-11 78 -13 92 -2 14 -11 75 -20 135 -9 61 -19 128 -21 150 -3 22 -7 51 -10 65
-2 14 -7 48 -10 76 l-6 50 64 55 c34 30 68 59 74 64 6 6 35 30 64 55 30 25 70
59 90 76 19 17 45 39 58 50 13 10 42 36 65 56 l42 38 -138 0 -138 0 6 48 c3
26 8 58 10 72 2 14 7 43 9 65 3 22 15 105 26 185 12 80 23 165 26 190 2 25 6
54 9 66 2 11 7 45 11 75 3 30 8 57 10 60 2 4 225 7 496 7 271 0 502 1 514 1
12 1 37 16 56 34 119 110 311 290 363 339 33 32 65 58 71 58 7 0 128 -32 270
-72 143 -39 279 -75 304 -80 41 -9 74 -1 350 75 l304 84 36 -36 c20 -20 65
-63 101 -96z"/>
<path d="M5098 5586 c-1 -2 -40 -7 -85 -10 -206 -17 -377 -102 -487 -243 -88
-112 -143 -262 -171 -468 -10 -71 -17 -119 -20 -145 -2 -14 -9 -63 -15 -110
-6 -47 -13 -96 -15 -110 -5 -34 -15 -103 -19 -137 -2 -15 -7 -48 -11 -73 -13
-79 -12 -233 2 -315 19 -113 64 -239 132 -368 60 -114 74 -139 218 -364 203
-319 218 -377 177 -658 -3 -22 -8 -53 -10 -70 -6 -47 -35 -244 -39 -264 -2
-10 -6 -42 -10 -72 -12 -97 -24 -128 -58 -149 -31 -20 -99 -26 -132 -14 -24
10 -44 56 -40 95 3 34 32 242 40 289 2 14 9 61 15 105 6 44 13 91 15 105 2 14
6 45 9 70 3 25 8 56 11 70 3 14 7 45 10 70 2 25 7 56 10 70 12 60 13 99 2 102
-17 5 -526 3 -531 -3 -3 -4 -9 -41 -22 -144 -3 -22 -11 -80 -19 -130 -8 -49
-17 -112 -20 -140 -3 -27 -10 -75 -15 -105 -5 -30 -12 -75 -15 -100 -3 -25 -8
-56 -10 -70 -2 -14 -6 -47 -10 -75 -3 -27 -10 -77 -16 -109 -6 -33 -9 -103 -8
-155 8 -272 120 -430 351 -495 73 -20 128 -27 233 -27 335 1 553 123 671 377
32 69 67 189 79 269 3 22 7 47 10 55 2 8 6 38 10 65 5 42 23 170 51 365 47
323 39 498 -33 690 -38 101 -150 310 -254 475 -240 377 -251 412 -214 675 8
58 18 123 21 145 7 54 11 83 19 130 3 22 7 54 9 70 3 17 7 53 11 80 15 118 38
157 100 174 64 16 139 -23 130 -69 -2 -10 -6 -47 -10 -82 -3 -35 -8 -70 -10
-78 -2 -8 -7 -40 -11 -70 -9 -76 -19 -148 -30 -220 -2 -19 -7 -51 -9 -70 -2
-19 -7 -52 -10 -73 -7 -39 -8 -48 -20 -140 l-7 -57 264 2 c255 3 263 4 264 23
2 20 7 59 24 175 5 36 12 81 14 100 3 19 12 87 21 150 9 63 18 131 21 150 5
41 11 81 20 130 12 73 14 299 3 351 -46 218 -194 329 -459 345 -52 3 -100 7
-107 9 -6 2 -13 2 -15 1z"/>
<path d="M3348 5560 c-158 -33 -308 -125 -391 -238 -68 -92 -136 -257 -151
-362 -3 -25 -8 -56 -11 -69 -2 -14 -7 -47 -10 -75 -3 -28 -8 -58 -10 -66 -3
-8 -7 -40 -10 -70 -3 -30 -7 -62 -10 -70 -2 -8 -7 -40 -10 -70 -3 -30 -10 -84
-16 -120 -17 -109 -17 -113 -24 -165 -3 -27 -10 -77 -15 -110 -5 -33 -11 -76
-14 -95 -2 -19 -12 -84 -20 -145 -9 -60 -18 -123 -20 -140 -3 -25 -14 -100
-42 -295 -18 -129 -24 -170 -29 -210 -3 -25 -7 -56 -10 -70 -3 -14 -7 -43 -10
-65 -2 -22 -11 -85 -19 -140 -8 -55 -17 -116 -20 -135 -5 -43 -16 -126 -22
-159 -2 -13 -6 -45 -10 -70 -3 -25 -8 -57 -10 -71 -2 -14 -8 -61 -14 -105 -6
-44 -13 -91 -15 -105 -6 -40 -14 -102 -20 -145 -3 -23 -8 -52 -11 -65 -2 -14
-6 -70 -9 -126 -8 -231 61 -388 213 -485 208 -132 634 -96 813 68 l26 24 70
-76 c63 -69 74 -77 107 -77 21 0 39 2 41 3 1 2 5 22 8 44 12 85 58 411 62 435
2 14 7 48 10 75 4 28 8 61 10 75 2 14 7 48 11 75 3 28 8 59 10 70 2 11 6 43 9
70 3 28 12 91 20 140 7 50 17 114 20 144 4 30 9 63 11 75 2 12 6 44 9 71 4 28
8 61 10 75 2 14 16 108 30 210 14 102 28 196 30 210 3 14 7 45 10 70 3 25 9
69 14 98 7 44 6 52 -8 53 -76 2 -703 0 -706 -3 -2 -2 -6 -26 -9 -53 -5 -46 -9
-83 -21 -160 -2 -16 -7 -52 -10 -80 -4 -27 -13 -93 -20 -145 -8 -52 -13 -95
-12 -97 1 -1 40 -3 85 -4 l83 -2 -6 -46 c-3 -25 -10 -73 -15 -106 -5 -33 -12
-82 -15 -110 -4 -27 -8 -57 -10 -65 -2 -8 -7 -40 -10 -70 -6 -52 -10 -82 -20
-141 -3 -14 -7 -43 -10 -64 -26 -206 -33 -233 -71 -266 -43 -37 -135 -43 -168
-10 -26 27 -26 74 -2 246 10 66 19 131 21 145 4 26 14 98 20 140 2 14 7 48 11
75 3 28 8 58 10 69 2 10 6 44 10 75 3 31 8 65 10 76 2 11 7 40 10 65 3 25 12
88 19 140 8 52 16 111 19 130 3 19 14 100 25 180 12 80 23 165 27 188 3 24 7
53 9 64 3 11 7 46 11 77 3 31 8 65 10 75 4 22 22 149 29 211 3 22 7 51 10 65
3 14 7 45 10 70 3 25 8 56 10 70 2 14 6 45 10 70 10 78 19 141 30 210 2 14 11
78 20 142 9 65 18 125 19 135 2 10 7 47 11 83 8 79 35 143 69 165 29 19 104
22 135 6 28 -16 50 -60 46 -96 -5 -54 -16 -140 -20 -155 -2 -8 -7 -37 -10 -65
-3 -27 -10 -77 -15 -110 -5 -33 -11 -77 -14 -97 -3 -21 -8 -53 -11 -70 -6 -43
-35 -250 -35 -255 0 -2 116 -2 258 -1 l257 3 16 115 c16 111 26 177 34 230 7
43 17 114 21 145 2 17 12 80 21 140 18 111 24 322 11 402 -10 61 -44 152 -73
193 -60 86 -127 134 -242 171 -97 31 -330 36 -455 9z"/>
<path d="M1460 5532 c0 -4 -9 -73 -20 -152 -12 -80 -23 -160 -25 -179 -10 -80
-26 -189 -30 -209 -4 -22 -4 -22 191 -22 166 0 194 -2 194 -15 0 -13 -33 -261
-45 -335 -2 -14 -9 -61 -15 -106 -6 -44 -12 -89 -14 -100 -2 -10 -7 -44 -10
-75 -4 -31 -8 -65 -10 -75 -7 -36 -18 -119 -22 -154 -2 -19 -6 -46 -9 -60 -3
-14 -7 -45 -10 -70 -3 -25 -12 -92 -21 -150 -15 -110 -16 -116 -34 -245 -5
-44 -12 -91 -15 -105 -7 -47 -15 -101 -21 -148 -3 -26 -7 -58 -9 -72 -2 -14
-7 -43 -10 -65 -7 -58 -11 -87 -29 -215 -9 -63 -19 -131 -22 -150 -2 -19 -6
-46 -8 -60 -6 -37 -16 -109 -21 -155 -3 -22 -7 -51 -10 -65 -2 -14 -7 -43 -10
-65 -2 -22 -14 -107 -25 -190 -12 -82 -23 -166 -26 -185 -3 -19 -7 -46 -9 -60
-2 -14 -7 -43 -9 -65 -3 -22 -13 -89 -21 -150 -9 -60 -19 -130 -22 -155 -3
-25 -11 -79 -17 -122 l-12 -76 285 1 285 2 7 40 c4 22 10 65 13 95 4 30 11 82
16 115 5 33 12 83 15 110 4 28 8 57 10 65 3 8 7 40 10 70 3 30 7 66 10 80 2
14 7 45 10 70 4 25 8 56 10 70 2 14 9 61 15 105 6 44 13 91 15 105 2 14 7 48
10 75 4 28 13 91 20 140 8 50 16 110 19 135 3 25 8 54 10 65 2 11 7 45 10 76
4 31 8 65 10 75 4 19 14 90 22 149 2 17 6 48 9 70 10 65 13 87 20 145 3 30 8
62 10 70 2 8 7 38 10 65 3 28 7 59 9 70 2 11 7 45 11 75 3 30 8 66 10 80 3 14
7 45 10 69 3 23 7 55 9 70 3 14 8 46 11 71 10 75 14 100 30 215 9 61 18 128
21 150 7 49 7 50 44 315 17 118 32 226 34 240 2 14 7 51 11 83 l7 57 194 0
c148 0 194 3 195 13 1 14 3 31 25 172 8 55 16 116 18 135 4 38 25 191 31 227
l4 23 -675 0 c-371 0 -674 -4 -674 -8z"/>
</g>
</svg>
