<?xml version="1.0" encoding="UTF-8" standalone="no"?>
<!-- Generator: Adobe Illustrator 24.3.0, SVG Export Plug-In . SVG Version: 6.00 Build 0)  -->

<svg
   xmlns:dc="http://purl.org/dc/elements/1.1/"
   xmlns:cc="http://creativecommons.org/ns#"
   xmlns:rdf="http://www.w3.org/1999/02/22-rdf-syntax-ns#"
   xmlns:svg="http://www.w3.org/2000/svg"
   xmlns="http://www.w3.org/2000/svg"
   xmlns:sodipodi="http://sodipodi.sourceforge.net/DTD/sodipodi-0.dtd"
   xmlns:inkscape="http://www.inkscape.org/namespaces/inkscape"
   version="1.1"
   id="svg4"
   inkscape:export-filename="C:\Users\style\Desktop\tglogo-white.png"
   inkscape:export-xdpi="233.51352"
   inkscape:export-ydpi="233.51352"
   inkscape:version="0.92.3 (2405546, 2018-03-11)"
   sodipodi:docname="tglogo-white.svg"
   x="0px"
   y="0px"
   viewBox="0 0 370.00001 369.99999"
   xml:space="preserve"
   width="370"
   height="370"><metadata
   id="metadata22"><rdf:RDF><cc:Work
       rdf:about=""><dc:format>image/svg+xml</dc:format><dc:type
         rdf:resource="http://purl.org/dc/dcmitype/StillImage" /><dc:title></dc:title></cc:Work></rdf:RDF></metadata><defs
   id="defs20">
	
	

		
		
	
	
	
</defs><sodipodi:namedview
   pagecolor="#ffffff"
   bordercolor="#666666"
   borderopacity="1"
   objecttolerance="10"
   gridtolerance="10"
   guidetolerance="10"
   inkscape:pageopacity="0"
   inkscape:pageshadow="2"
   inkscape:window-width="1050"
   inkscape:window-height="814"
   id="namedview18"
   showgrid="false"
   inkscape:pagecheckerboard="true"
   inkscape:zoom="0.91040479"
   inkscape:cx="30.07269"
   inkscape:cy="117.589"
   inkscape:window-x="89"
   inkscape:window-y="145"
   inkscape:window-maximized="0"
   inkscape:current-layer="svg4" />
<style
   type="text/css"
   id="style2">
	.st0{fill:#092337;}
	.st1{fill:#FFFFFF;}
</style>
<path
   style="fill:#ffffff;fill-opacity:1;stroke-width:1"
   d="M 141.30282,4.8734214 108.6135,36.683481 63.814579,45.488915 49.615388,88.856105 14.06474,117.47376 l 7.595116,45.01821 -18.1612076,41.82581 27.6266186,36.32242 3.411676,45.45676 41.385107,19.26188 24.1053,38.7452 45.56855,-2.09172 39.40302,23.11426 39.40518,-23.11426 45.56855,2.09172 24.1053,-38.7452 41.38511,-19.26188 3.41168,-45.45676 27.62661,-36.32242 -18.1612,-41.82581 7.59511,-45.01821 L 320.38247,88.856105 306.18542,45.488915 261.38649,36.683481 228.69718,4.8734214 184.99892,17.862297 Z m 11.99783,49.4209266 13.05122,3.852377 h 6.65137 9.79433 v 4.854167 l 2.20135,0.649229 31.70042,-9.355773 4.05445,3.959865 c 1.15892,-0.0634 2.3333,-0.107492 3.54067,-0.107492 h 36.10099 c 13.86856,0 24.6565,4.403576 32.14112,12.988874 7.04435,8.145026 10.67573,19.921434 10.67573,34.890675 v 25.42526 l 5.72482,4.62414 -5.9441,32.57968 13.20815,30.37831 -12.87923,16.91219 v 48.02789 c 0,14.96923 -3.63138,26.74564 -10.67573,34.89067 -7.48462,8.5853 -18.27042,12.98887 -32.13898,12.98887 H 224.4041 191.15585 l -6.3762,3.74274 -28.50802,-16.73161 -9.46542,0.44284 v 2.63992 9.90611 h -9.90611 -24.21494 -9.90611 v -9.90611 -30.9953 L 75.812413,258.3607 73.391778,225.34032 53.358127,199.03366 66.566277,168.65535 61.062881,136.07567 86.819205,115.2724 89.929913,105.80699 H 76.582028 66.675916 V 95.900879 68.052838 58.146725 h 9.906112 72.773812 z m -76.718622,13.75849 v 27.848041 h 16.604778 l 3.979208,-12.107469 32.470036,-6.384799 9.57935,-9.355773 z m 154.202572,0 9.57935,9.355773 32.57967,6.384799 10.23718,31.47899 10.12539,8.17771 v -17.42384 c 0,-25.205549 -11.00722,-37.973432 -32.91074,-37.973432 z m 62.63123,190.462652 -29.60656,13.82298 -17.50123,28.06732 -33.02037,-1.54138 -1.91329,1.12217 c 3.80127,1.22694 8.14853,1.85095 13.02972,1.85095 h 36.10313 c 21.79345,0 32.9086,-12.76788 32.9086,-37.97343 z m -180.84031,24.76957 v 18.66211 h 24.32458 v -2.17772 l -13.64885,0.63634 z"
   id="polygon4"
   inkscape:connector-curvature="0" />

<path
   inkscape:connector-curvature="0"
   style="fill:#ffffff;stroke-width:1"
   d="M 76.583101,68.052834 V 95.900876 H 112.5766 V 301.94717 h 24.32458 V 95.900876 h 36.10314 V 68.052834 Z m 147.822079,0 c -10.89673,0 -19.15268,3.082761 -24.54601,9.136497 -5.61346,6.273871 -8.47437,16.069057 -8.47437,28.836939 V 263.8641 c 0,12.87794 2.86091,22.56306 8.47437,28.83693 5.39333,6.05374 13.64928,9.1365 24.54601,9.1365 h 36.10313 c 21.79345,0 32.90859,-12.76788 32.90859,-37.97343 v -84.20196 h -41.82581 v 27.84589 H 270.193 v 47.76991 c 0,11.6672 -6.49272,18.71155 -17.38944,18.71155 h -19.70259 c -10.89672,0 -17.39159,-6.93428 -17.39159,-18.71155 V 114.61243 c 0,-11.6672 6.49487,-18.711554 17.39159,-18.711554 h 19.70259 c 10.67659,0 17.2798,7.154424 17.2798,18.711554 v 22.01358 h 23.22391 v -30.59974 c 0,-25.205553 -11.00723,-37.973436 -32.91074,-37.973436 z"
   id="path12-0" /></svg>